<?xml version="1.0" encoding="utf-8"?>
<!-- Generator: Adobe Illustrator 16.0.3, SVG Export Plug-In . SVG Version: 6.00 Build 0)  -->
<!DOCTYPE svg PUBLIC "-//W3C//DTD SVG 1.1//EN" "http://www.w3.org/Graphics/SVG/1.1/DTD/svg11.dtd">
<svg version="1.1" id="Layer_1" xmlns="http://www.w3.org/2000/svg" xmlns:xlink="http://www.w3.org/1999/xlink" x="0px" y="0px"
	 viewBox="0 0 728 270" enable-background="new 0 0 728 270" xml:space="preserve">
<ellipse fill="none" stroke="#17145B" stroke-miterlimit="10" cx="-221.667" cy="-298" rx="2" ry="0.667"/>
<path fill="none" d="M126.333-144c0,30.733,51.474,56.185,118.626,60.641l8.707-11.308l62.667-94.667l5.555-10.887
	c-17.115-3.286-36.014-5.113-55.888-5.113C188.864-205.333,126.333-177.873,126.333-144z"/>
<g>
	<g>
		<path fill="#223B6B" d="M147.767,202.428c5.226,3.097,14.128,6.581,22.645,6.581c12.192,0,17.999-6,17.999-13.936
			c0-8.129-4.839-12.387-17.226-17.031c-17.031-6.193-24.967-15.29-24.967-26.514c0-15.093,12.387-27.48,32.322-27.48
			c9.483,0,17.806,2.516,22.838,5.806l-4.064,12.385c-3.678-2.322-10.451-5.611-19.161-5.611c-10.064,0-15.483,5.805-15.483,12.771
			c0,7.74,5.419,11.224,17.612,16.063c16.064,5.999,24.58,14.128,24.58,28.063c0,16.645-12.968,28.257-34.838,28.257
			c-10.258,0-19.741-2.71-26.321-6.58L147.767,202.428z"/>
		<path fill="#223B6B" d="M232.921,125.983l20.322,55.349c2.322,6.193,4.646,13.548,6.193,19.16h0.388
			c1.741-5.612,3.677-12.773,5.999-19.548l18.58-54.961h18l-25.548,66.768c-12.193,32.128-20.516,48.386-32.128,58.644
			c-8.516,7.161-16.645,10.063-20.902,10.838l-4.258-14.128c4.258-1.355,9.87-4.064,14.902-8.322
			c4.645-3.678,10.258-10.258,14.322-18.968c0.774-1.742,1.354-3.097,1.354-4.064s-0.387-2.322-1.354-4.451l-34.451-86.316H232.921z
			"/>
		<path fill="#223B6B" d="M314.398,202.428c5.226,3.097,14.129,6.581,22.645,6.581c12.193,0,18-6,18-13.936
			c0-8.129-4.839-12.387-17.226-17.031c-17.032-6.193-24.967-15.29-24.967-26.514c0-15.093,12.387-27.48,32.321-27.48
			c9.483,0,17.806,2.516,22.838,5.806l-4.064,12.385c-3.677-2.322-10.451-5.611-19.16-5.611c-10.064,0-15.483,5.805-15.483,12.771
			c0,7.74,5.419,11.224,17.612,16.063c16.063,5.999,24.58,14.128,24.58,28.063c0,16.645-12.968,28.257-34.838,28.257
			c-10.258,0-19.741-2.71-26.322-6.58L314.398,202.428z"/>
		<path fill="#223B6B" d="M413.877,103.532v22.451h24.386v12.967h-24.386v50.511c0,11.612,3.29,18.192,12.773,18.192
			c4.645,0,7.354-0.387,9.87-1.161l0.774,12.968c-3.29,1.161-8.516,2.322-15.096,2.322c-7.936,0-14.322-2.71-18.387-7.161
			c-4.646-5.226-6.581-13.548-6.581-24.58V138.95h-14.516v-12.967h14.516v-17.418L413.877,103.532z"/>
		<path fill="#223B6B" d="M465.742,175.913c0.387,23.031,14.902,32.515,32.128,32.515c12.193,0,19.741-2.129,25.935-4.839
			l3.097,12.193c-6,2.71-16.451,6-31.354,6c-28.838,0-46.063-19.16-46.063-47.418c0-28.254,16.645-50.316,43.935-50.316
			c30.773,0,38.708,26.706,38.708,43.93c0,3.483-0.193,6-0.58,7.936H465.742z M515.676,163.72
			c0.193-10.644-4.451-27.479-23.612-27.479c-17.418,0-24.773,15.674-26.128,27.479H515.676z"/>
		<path fill="#223B6B" d="M619.99,216.363c-4.451,2.129-14.321,5.419-26.902,5.419c-28.257,0-46.644-19.16-46.644-47.805
			c0-28.835,19.741-49.93,50.321-49.93c10.064,0,18.967,2.516,23.612,5.032l-3.871,12.966c-4.064-2.128-10.451-4.45-19.741-4.45
			c-21.483,0-33.096,16.061-33.096,35.414c0,21.677,13.935,35.031,32.515,35.031c9.678,0,16.064-2.323,20.903-4.452L619.99,216.363z
			"/>
		<path fill="#223B6B" d="M639.922,82.243h17.031v58.643h0.388c2.709-4.838,6.967-9.29,12.192-12.192
			c5.032-2.903,11.032-4.645,17.419-4.645c12.58,0,32.709,7.742,32.709,39.865v55.74h-17.032v-53.805
			c0-15.095-5.612-27.673-21.677-27.673c-11.031,0-19.547,7.741-22.838,16.835c-0.968,2.516-1.161,5.031-1.161,8.128v56.515h-17.031
			V82.243z"/>
	</g>
	<circle fill="#E68B13" cx="87.179" cy="171.368" r="12.925"/>
	<circle fill="#E68B13" cx="116.457" cy="191.608" r="12.925"/>
	<path fill="#E68B13" d="M184.436,71.322C123.889,10.693,43.97-9.095,19.438,16.838C-7.611,45.435,0.754,98.116,49.882,155.083
		l0.363-0.088c2.371,2.84,5.936,4.649,9.925,4.649c7.139,0,12.926-5.786,12.926-12.924c0-3.521-1.413-6.709-3.698-9.04l0,0
		c0-0.001-0.001-0.001-0.001-0.002c-0.051-0.052-0.101-0.104-0.152-0.154C23.886,92.519,13.931,43.797,35.652,22.105
		c23.968-23.936,93.51,5.702,143.713,54.28c15.271,14.778,38.09,40.972,38.09,40.972S216.856,103.788,184.436,71.322z"/>
</g>
</svg>
